<svg xmlns="http://www.w3.org/2000/svg" viewBox="0 0 270 237.57"><defs><style>.cls-1{fill:#8247e5;}</style></defs><g id="レイヤー_2" data-name="レイヤー 2"><g id="レイヤー_1-2" data-name="レイヤー 1"><path class="cls-1" d="M204.44,72.61a18,18,0,0,0-16.92,0L148,95.87l-26.79,14.81L82.48,133.94a18,18,0,0,1-16.92,0L35.25,115.61a17.17,17.17,0,0,1-8.46-14.8V65.56a17.37,17.37,0,0,1,8.46-14.8L65.56,33.13a18,18,0,0,1,16.92,0l30.31,18.33a17.18,17.18,0,0,1,8.46,14.81V89.53L148,74v-24a17.37,17.37,0,0,0-8.46-14.8L83.19,2.11a18,18,0,0,0-16.92,0L8.46,36A15.51,15.51,0,0,0,0,50.05v66.27a17.37,17.37,0,0,0,8.46,14.8l57.1,33.14a18,18,0,0,0,16.92,0l38.77-22.56L148,126.19l38.77-22.56a18,18,0,0,1,16.92,0l30.32,17.62a17.2,17.2,0,0,1,8.46,14.81v35.25a17.39,17.39,0,0,1-8.46,14.8l-29.61,17.62a18,18,0,0,1-16.92,0l-30.31-17.62a17.17,17.17,0,0,1-8.46-14.8V148.75L122,164.26v23.26a17.37,17.37,0,0,0,8.46,14.8l57.1,33.14a18,18,0,0,0,16.92,0l57.1-33.14a17.17,17.17,0,0,0,8.46-14.8v-67a17.4,17.4,0,0,0-8.46-14.81Z"/></g></g></svg>