<svg width="130" height="26" viewBox="0 0 130 26" fill="none" xmlns="http://www.w3.org/2000/svg">
<path d="M14.6202 25.7384L10.1948 19.361L9.93253 19.361L5.31046 19.361L5.31047 25.7384L4.50024e-06 25.7384L4.97486e-07 2.84529L9.93253 2.84528C11.9649 2.84528 13.7242 3.18323 15.2102 3.85912C16.7181 4.53501 17.8764 5.49434 18.685 6.73711C19.4935 7.97988 19.8978 9.45158 19.8978 11.1522C19.8978 12.8528 19.4826 14.3245 18.6522 15.5673C17.8436 16.7883 16.6853 17.7258 15.1774 18.3799L20.324 25.7384L14.6202 25.7384ZM14.5218 11.1522C14.5218 9.86584 14.1066 8.8847 13.2762 8.20881C12.4457 7.51112 11.2328 7.16227 9.6375 7.16227L5.31046 7.16227L5.31046 15.1422L9.63751 15.1422C11.2328 15.1422 12.4457 14.7933 13.2762 14.0956C14.1066 13.3979 14.5218 12.4168 14.5218 11.1522Z" fill="#463A3F"/>
<path d="M32.6282 21.912C33.5461 21.912 34.3547 21.7811 35.054 21.5195C35.7752 21.2361 36.4417 20.8 37.0536 20.2113L39.7744 23.1547C38.1135 25.0516 35.6878 26 32.4971 26C30.5084 26 28.7492 25.6185 27.2194 24.8554C25.6897 24.0705 24.5096 22.9912 23.6791 21.6176C22.8487 20.244 22.4335 18.6851 22.4335 16.9409C22.4335 15.2185 22.8378 13.6704 23.6464 12.2969C24.4768 10.9015 25.6023 9.82223 27.0228 9.05912C28.4651 8.27422 30.0823 7.88176 31.8743 7.88176C33.557 7.88176 35.0868 8.24151 36.4636 8.96101C37.8404 9.6587 38.933 10.6834 39.7416 12.0352C40.5721 13.3652 40.9873 14.9459 40.9873 16.7774L27.9406 19.2956C28.3121 20.1677 28.8913 20.8218 29.678 21.2579C30.4866 21.6939 31.47 21.912 32.6282 21.912ZM31.8743 11.7409C30.5849 11.7409 29.5359 12.1551 28.7273 12.9837C27.9188 13.8122 27.4926 14.9568 27.4489 16.4176L36.0374 14.7497C35.797 13.834 35.3053 13.1036 34.5623 12.5585C33.8193 12.0134 32.9233 11.7409 31.8743 11.7409Z" fill="#463A3F"/>
<path d="M55.1439 7.88176C57.3293 7.88176 59.0885 8.53585 60.4216 9.84402C61.7765 11.1522 62.454 13.0927 62.454 15.6654L62.454 25.7384L57.3402 25.7384L57.3402 16.4503C57.3402 15.0549 57.0343 14.0193 56.4224 13.3434C55.8105 12.6457 54.9254 12.2969 53.7671 12.2969C52.4778 12.2969 51.4506 12.7002 50.6858 13.5069C49.9209 14.2918 49.5384 15.4692 49.5384 17.039L49.5384 25.7384L44.4247 25.7384L44.4247 8.1434L49.309 8.14339L49.309 10.2038C49.9864 9.46247 50.8278 8.8956 51.8331 8.50314C52.8383 8.08889 53.942 7.88176 55.1439 7.88176Z" fill="#463A3F"/>
<path d="M77.7103 24.8881C77.2077 25.2587 76.5848 25.5421 75.8418 25.7384C75.1206 25.9128 74.3667 26 73.58 26C71.4601 26 69.832 25.4658 68.6956 24.3975C67.5592 23.3291 66.991 21.7593 66.991 19.6881L66.991 4.25157L72.1048 4.25157L72.1048 8.53584L76.4646 8.53584L76.4646 12.4604L72.1048 12.4604L72.1048 19.6226C72.1048 20.3639 72.2906 20.9417 72.6621 21.356C73.0336 21.7484 73.569 21.9447 74.2683 21.9447C75.0551 21.9447 75.7544 21.7266 76.3663 21.2906L77.7103 24.8881Z" fill="#463A3F"/>
<path d="M98.977 8.14339L98.977 25.7384L94.0927 25.7384L94.0927 23.7107C92.8252 25.2369 90.9895 26 88.5855 26C86.9247 26 85.4167 25.6294 84.0618 24.8881C82.7287 24.1468 81.6797 23.0893 80.9149 21.7157C80.15 20.3421 79.7675 18.7505 79.7675 16.9409C79.7675 15.1312 80.15 13.5396 80.9149 12.166C81.6797 10.7924 82.7287 9.73501 84.0618 8.9937C85.4167 8.2524 86.9247 7.88175 88.5855 7.88175C90.8365 7.88175 92.5957 8.59035 93.8632 10.0075L93.8632 8.14339L98.977 8.14339ZM89.4706 21.8138C90.76 21.8138 91.8308 21.3778 92.6831 20.5057C93.5354 19.6117 93.9616 18.4235 93.9616 16.9409C93.9616 15.4583 93.5354 14.2809 92.6831 13.4088C91.8308 12.5149 90.76 12.0679 89.4706 12.0679C88.1594 12.0679 87.0776 12.5149 86.2253 13.4088C85.373 14.2809 84.9469 15.4583 84.9469 16.9409C84.9469 18.4235 85.373 19.6117 86.2253 20.5057C87.0776 21.3778 88.1594 21.8138 89.4706 21.8138Z" fill="#463A3F"/>
<path d="M114.759 6.96603C112.923 6.96603 111.535 7.36938 110.595 8.17609C109.656 8.961 109.186 10.1493 109.186 11.7409L109.186 13.1472L118.627 13.1472L118.627 17.3987L109.186 17.3987L109.186 25.7384L103.875 25.7384L103.875 11.7736C103.875 8.83018 104.793 6.54087 106.629 4.90565C108.487 3.27043 111.076 2.45281 114.398 2.45281C115.709 2.45281 116.944 2.59453 118.102 2.87797C119.26 3.1396 120.266 3.53206 121.118 4.05533L119.479 8.2415C118.168 7.39118 116.594 6.96603 114.759 6.96603Z" fill="#463A3F"/>
<path d="M124.263 8.14338L129.377 8.14338L129.377 25.7384L124.263 25.7384L124.263 16.9409L124.263 8.14338ZM126.82 5.69055C125.881 5.69055 125.116 5.41801 124.526 4.87294C123.936 4.32787 123.641 3.65197 123.641 2.84526C123.641 2.03855 123.936 1.36266 124.526 0.81759C125.116 0.272515 125.881 -2.20097e-05 126.82 -2.2174e-05C127.76 -2.23383e-05 128.525 0.261613 129.115 0.784885C129.705 1.30816 130 1.96224 130 2.74715C130 3.59747 129.705 4.30606 129.115 4.87294C128.525 5.41801 127.76 5.69055 126.82 5.69055Z" fill="#463A3F"/>
</svg>
